{"title":"Pain and Gain 2013 TS READNFO XViD- KTEICHD (HQ- 720p/280p)","uid":8604218,"size":1490012160,"categoryP":"video","categoryS":"hd___movies","magnet":"?xt=urn:btih:62c1d2c6b516c753955a32d048b04e45639787a1&amp;dn=Pain+and+Gain+2013+TS+READNFO+XViD-+KTEICHD+%28HQ-+720p%2F280p%29&amp;tr=udp%3A%2F%2Ftracker.openbittorrent.com%3A80&amp;tr=udp%3A%2F%2Fopen.demonii.com%3A1337&amp;tr=udp%3A%2F%2Ftracker.coppersurfer.tk%3A6969&amp;tr=udp%3A%2F%2Fexodus.desync.com%3A6969","seeders":0,"leechers":1,"uploader":"adrianprdf","files":2,"time":1371963113,"description":"KteIchD . P R E S E N T S . . .\n\nPain and Gain 2013 TS READNFO XViD - KTEICHD\n\nPLOT........: A trio of bodybuilders in Florida get caught up in an extortion\n             ring and a kidnapping scheme that goes terribly wrong.\n\n\n\n\nScreen:\n\n//bayimg.com/bANFHAAeG\n\n//bayimg.com/BAnFiAAEG\n\n//bayimg.com/BAnFiAAEG\n\n//bayimg.com/BANfKAaeg\n\n//bayimg.com/BANfMaaeG\n\n\n\nCheck out my new torrent &quot;The Purge 2013&quot; I will upload it on 25.06.2013\n\n\n\nT E C H N i C A L . i N F O . . .      \nGeneral\nComplete name                    : Pain and Gain 2013 TS READNFO XViD - KTEICHDPain and Gain 2013 TS READNFO XViD - KTEICHD.avi\nFormat                           : AVI\nFormat/Info                      : Audio Video Interleave\nFile size                        : 1.38 GiB\nDuration                         : 2h 0mn\nOverall bit rate                 : 1 633 Kbps\nWriting application              : VirtualDubMod 1.5.10.2 (build 2540/release)\nWriting library                  : VirtualDubMod build 2540/release\n\nVideo\nID                               : 0\nFormat                           : MPEG-4 Visual\nFormat profile                   : Advanced Simple@L5\nFormat settings, BVOP            : 2\nFormat settings, QPel            : No\nFormat settings, GMC             : No warppoints\nFormat settings, Matrix          : Default (MPEG)\nMuxing mode                      : Packed bitstream\nCodec ID                         : XVID\nCodec ID/Hint                    : XviD\nDuration                         : 2h 0mn\nBit rate                         : 1 494 Kbps\nWidth                            : 720 pixels\nHeight                           : 280 pixels\nDisplay aspect ratio             : 2.571\nFrame rate                       : 29.970 fps\nColor space                      : YUV\nChroma subsampling               : 4:2:0\nBit depth                        : 8 bits\nScan type                        : Progressive\nCompression mode                 : Lossy\nBits/(Pixel*Frame)               : 0.247\nStream size                      : 1.26 GiB (91%)\nWriting library                  : XviD 64\n\nAudio\nID                               : 1\nFormat                           : MPEG Audio\nFormat version                   : Version 1\nFormat profile                   : Layer 3\nCodec ID                         : 55\nCodec ID/Hint                    : MP3\nDuration                         : 2h 0mn\nBit rate mode                    : Constant\nBit rate                         : 128 Kbps\nChannel(s)                       : 2 channels\nSampling rate                    : 44.1 KHz\nCompression mode                 : Lossy\nDelay relative to video          : 172ms\nStream size                      : 111 MiB (8%)\nAlignment                        : Split accross interleaves\nInterleave, duration             : 33 ms (1.00 video frame)\nInterleave, preload duration     : 500 ms\n","torrent":{"xt":"urn:btih:62c1d2c6b516c753955a32d048b04e45639787a1","amp;dn":"Pain+and+Gain+2013+TS+READNFO+XViD-+KTEICHD+%28HQ-+720p%2F280p%29","amp;tr":["udp%3A%2F%2Ftracker.openbittorrent.com%3A80","udp%3A%2F%2Fopen.demonii.com%3A1337","udp%3A%2F%2Ftracker.coppersurfer.tk%3A6969","udp%3A%2F%2Fexodus.desync.com%3A6969"],"infoHash":"62c1d2c6b516c753955a32d048b04e45639787a1","infoHashBuffer":{"type":"Buffer","data":[98,193,210,198,181,22,199,83,149,90,50,208,72,176,78,69,99,151,135,161]},"announce":[],"urlList":[]}}